<svg width="47" height="45" viewBox="0 0 47 45" fill="none" xmlns="http://www.w3.org/2000/svg">
<path d="M23.461 0.200195C10.9768 0.200195 0.853516 10.3218 0.853516 22.8077C0.853516 32.7964 7.33124 41.2706 16.314 44.26C17.4438 44.4693 17.8587 43.7696 17.8587 43.1724C17.8587 42.6334 17.8376 40.8524 17.828 38.9634C11.5384 40.3309 10.2112 36.296 10.2112 36.296C9.18286 33.6828 7.7011 32.9881 7.7011 32.9881C5.65002 31.5849 7.85572 31.6136 7.85572 31.6136C10.126 31.7732 11.3214 33.9434 11.3214 33.9434C13.3377 37.3997 16.6101 36.4004 17.9001 35.8229C18.103 34.3615 18.689 33.3644 19.3354 32.7998C14.3141 32.228 9.03534 30.2895 9.03534 21.627C9.03534 19.1589 9.9185 17.142 11.3648 15.5589C11.13 14.9894 10.3563 12.69 11.5838 9.576C11.5838 9.576 13.4822 8.96837 17.8025 11.8934C19.6057 11.3923 21.5397 11.1413 23.461 11.1328C25.3823 11.1413 27.3178 11.3923 29.1246 11.8934C33.4397 8.96837 35.3354 9.576 35.3354 9.576C36.5659 12.69 35.7918 14.9894 35.5571 15.5589C37.0065 17.142 37.8837 19.1587 37.8837 21.627C37.8837 30.3101 32.595 32.2222 27.5609 32.7817C28.3717 33.4833 29.0942 34.8592 29.0942 36.9683C29.0942 39.9932 29.068 42.4278 29.068 43.1724C29.068 43.774 29.4749 44.479 30.621 44.257C39.5988 41.2643 46.0683 32.7931 46.0683 22.8077C46.0683 10.3218 35.9464 0.200195 23.461 0.200195Z" fill="white"/>
</svg>
