<svg width="45" height="45" viewBox="0 0 45 45" fill="none" xmlns="http://www.w3.org/2000/svg">
<path fill-rule="evenodd" clip-rule="evenodd" d="M16.5899 0.200195C14.157 0.201993 12.188 2.17638 12.1898 4.60931C12.188 7.04223 14.1588 9.01662 16.5917 9.01842H20.9936V4.61111C20.9954 2.17818 19.0246 0.203792 16.5899 0.200195C16.5917 0.200195 16.5917 0.200195 16.5899 0.200195ZM16.5899 11.9602H4.85505C2.42213 11.962 0.451332 13.9364 0.45313 16.3693C0.449534 18.8023 2.42033 20.7767 4.85325 20.7802H16.5899C19.0228 20.7785 20.9936 18.8041 20.9918 16.3711C20.9936 13.9364 19.0228 11.962 16.5899 11.9602Z" fill="#36C5F0"/>
<path fill-rule="evenodd" clip-rule="evenodd" d="M44.4649 16.3693C44.4667 13.9364 42.4959 11.962 40.0629 11.9602C37.63 11.962 35.6592 13.9364 35.661 16.3693V20.7802H40.0629C42.4959 20.7785 44.4667 18.8041 44.4649 16.3693ZM32.7282 16.3693V4.60931C32.73 2.17818 30.761 0.203792 28.3281 0.200195C25.8952 0.201993 23.9244 2.17638 23.9262 4.60931V16.3693C23.9226 18.8023 25.8934 20.7767 28.3263 20.7802C30.7592 20.7785 32.73 18.8041 32.7282 16.3693Z" fill="#2EB67D"/>
<path fill-rule="evenodd" clip-rule="evenodd" d="M28.3263 44.3002C30.7592 44.2984 32.73 42.324 32.7282 39.8911C32.73 37.4582 30.7592 35.4838 28.3263 35.482H23.9244V39.8911C23.9226 42.3222 25.8934 44.2966 28.3263 44.3002ZM28.3263 32.5384H40.063C42.4959 32.5366 44.4667 30.5622 44.4649 28.1293C44.4685 25.6963 42.4977 23.7219 40.0648 23.7183H28.3281C25.8952 23.7201 23.9244 25.6945 23.9262 28.1275C23.9244 30.5622 25.8934 32.5366 28.3263 32.5384Z" fill="#ECB22E"/>
<path fill-rule="evenodd" clip-rule="evenodd" d="M0.453126 28.1292C0.451328 30.5621 2.42212 32.5365 4.85505 32.5383C7.28797 32.5365 9.25877 30.5621 9.25697 28.1292V23.7201H4.85505C2.42212 23.7219 0.451328 25.6963 0.453126 28.1292ZM12.1898 28.1292V39.8893C12.1862 42.3222 14.157 44.2966 16.5899 44.3002C19.0228 44.2984 20.9936 42.324 20.9918 39.8911V28.1328C20.9954 25.6999 19.0246 23.7255 16.5917 23.7219C14.157 23.7219 12.188 25.6963 12.1898 28.1292Z" fill="#E01E5A"/>
</svg>
